<?xml version="1.0" encoding="UTF-8" standalone="no"?>
<svg width="33px" height="33px" viewBox="0 0 33 33" version="1.1" xmlns="http://www.w3.org/2000/svg" xmlns:xlink="http://www.w3.org/1999/xlink">
    <!-- Generator: Sketch 3.8.3 (29802) - http://www.bohemiancoding.com/sketch -->
    <title>Expand Button</title>
    <desc>Created with Sketch.</desc>
    <defs></defs>
    <g id="Reskin-UI" stroke="none" stroke-width="1" fill="none" fill-rule="evenodd">
        <g id="Game" transform="translate(-448.000000, -388.000000)" stroke-width="4" stroke="#0A2F41">
            <g id="Spectrograms-Shown" transform="translate(2.000000, 80.000000)">
                <g id="Spectrogram-Button" transform="translate(144.000000, 126.000000)">
                    <g id="Expand-Button" transform="translate(302.000000, 182.000000)">
                        <g id="Single-expand-arrow">
                            <path d="M0,2 L12,2" id="Line"></path>
                            <path d="M3,3 L13.511898,13.511898" id="Line-Copy-4"></path>
                            <path d="M2,0 L2,12" id="Line-Copy-3"></path>
                        </g>
                        <g id="Single-expand-arrow-Copy" transform="translate(26.000000, 7.000000) rotate(90.000000) translate(-26.000000, -7.000000) translate(19.000000, 0.000000)">
                            <path d="M0,2 L12,2" id="Line"></path>
                            <path d="M3,3 L13.511898,13.511898" id="Line-Copy-4"></path>
                            <path d="M2,0 L2,12" id="Line-Copy-3"></path>
                        </g>
                        <g id="Single-expand-arrow-Copy-2" transform="translate(26.000000, 26.000000) rotate(180.000000) translate(-26.000000, -26.000000) translate(19.000000, 19.000000)">
                            <path d="M0,2 L12,2" id="Line"></path>
                            <path d="M3,3 L13.511898,13.511898" id="Line-Copy-4"></path>
                            <path d="M2,0 L2,12" id="Line-Copy-3"></path>
                        </g>
                        <g id="Single-expand-arrow-Copy-3" transform="translate(7.000000, 26.000000) rotate(270.000000) translate(-7.000000, -26.000000) translate(0.000000, 19.000000)">
                            <path d="M0,2 L12,2" id="Line"></path>
                            <path d="M3,3 L13.511898,13.511898" id="Line-Copy-4"></path>
                            <path d="M2,0 L2,12" id="Line-Copy-3"></path>
                        </g>
                    </g>
                </g>
            </g>
        </g>
    </g>
</svg>